<svg xmlns="http://www.w3.org/2000/svg" viewBox="0 0 160 32">
  <!-- Icon (dice) -->
  <g>
    <!-- Pink background rounded -->
    <rect fill="#FF2D92" x="0" y="0" width="32" height="32" rx="6" ry="6"/>
    <!-- Dice outline with 2 dots matching the logo -->
    <rect fill="none" stroke="#fff" stroke-width="2" x="3" y="3" width="26" height="26" rx="3.5" ry="3.5"/>
    <!-- Dot 1 (top-left) -->
    <circle fill="#fff" cx="10" cy="10" r="3.5"/>
    <!-- Dot 2 (bottom-right) -->
    <circle fill="#fff" cx="22" cy="22" r="3.5"/>
  </g>
  
  <!-- Text "Diceify" - Syne Bold approximation using paths -->
  <!-- "D" -->
  <path fill="#ffffff" d="M42 8h5.5c5.2 0 8.5 3.2 8.5 8s-3.3 8-8.5 8H42V8zm3.2 2.6v10.8h2.2c3.4 0 5.4-2.1 5.4-5.4s-2-5.4-5.4-5.4h-2.2z"/>
  <!-- "i" -->
  <path fill="#ffffff" d="M59 13.5h3v10.5h-3V13.5zm1.5 0c-1.1 0-1.8-.7-1.8-1.7 0-1 .7-1.7 1.8-1.7s1.8.7 1.8 1.7c0 1-.7 1.7-1.8 1.7z"/>
  <!-- "c" -->
  <path fill="#ffffff" d="M74 18.8c0-3.3-2.2-5.6-5.3-5.6-3.2 0-5.5 2.4-5.5 5.5s2.3 5.5 5.6 5.5c2.2 0 4-1.1 4.9-2.8l-2.4-1.2c-.5.9-1.4 1.5-2.5 1.5-1.6 0-2.7-1.1-2.7-3s1.1-3 2.7-3c1 0 1.8.5 2.3 1.3l2.5-1.2c-.8-1.5-2.5-2.6-4.7-2.6z"/>
  <!-- "e" -->
  <path fill="#ffffff" d="M84.5 18.8c0-3.2-2.3-5.6-5.5-5.6s-5.5 2.4-5.5 5.5 2.3 5.5 5.6 5.5c2 0 3.7-.9 4.7-2.4l-2.3-1.3c-.6.8-1.4 1.2-2.4 1.2-1.4 0-2.4-.8-2.7-2.2h7.9c.1-.3.2-.5.2-.7zm-8-1.3c.3-1.3 1.2-2.1 2.5-2.1 1.2 0 2.1.8 2.4 2.1h-4.9z"/>
  <!-- "i" -->
  <path fill="#FF2D92" d="M87 13.5h3v10.5h-3V13.5zm1.5 0c-1.1 0-1.8-.7-1.8-1.7 0-1 .7-1.7 1.8-1.7s1.8.7 1.8 1.7c0 1-.7 1.7-1.8 1.7z"/>
  <!-- "f" -->
  <path fill="#FF2D92" d="M92 13.5h2v-1.5c0-2.5 1.5-4 4-4h1v2.5h-.8c-1 0-1.4.5-1.4 1.5v1.5h2.2v2.5h-2.2v8h-3v-8h-2v-2.5z"/>
  <!-- "y" -->
  <path fill="#FF2D92" d="M101 13.5h3.2l2.8 7.2 2.8-7.2h3.2l-4.8 12c-.8 2-2 2.8-4 2.8h-1.5v-2.5h1.2c.8 0 1.2-.3 1.5-1l.3-.8-4.7-10.5z"/>
</svg>
