<svg xmlns="http://www.w3.org/2000/svg" viewBox="0 0 118 32">
  <!-- Icon (dice) - rotated 45° diamond style matching favicon -->
  <g transform="rotate(45 16 16)">
    <!-- Pink diamond background -->
    <rect fill="#FF2D92" x="4" y="4" width="24" height="24" rx="4" ry="4"/>
    <!-- Dice border -->
    <rect fill="none" stroke="#fff" stroke-width="1.5" x="6.5" y="6.5" width="19" height="19" rx="3" ry="3"/>
    <!-- Dot 1 -->
    <circle fill="#fff" cx="11.5" cy="11.5" r="2.5"/>
    <!-- Dot 2 -->
    <circle fill="#fff" cx="20.5" cy="20.5" r="2.5"/>
  </g>
  
  <!-- Text "Dice" in black - Syne Bold font converted to paths -->
  <path fill="#000000" d="M41.54 10.06L48.94 10.06Q51.12 10.06 52.58 10.58Q54.04 11.10 54.91 11.99Q55.78 12.88 56.15 14.04Q56.52 15.20 56.52 16.48L56.52 16.48Q56.52 17.76 56.11 18.94Q55.70 20.12 54.81 21.03Q53.92 21.94 52.47 22.47Q51.02 23 48.94 23L48.94 23L41.54 23L41.54 10.06ZM44.20 12.34L44.20 20.72L48.88 20.72Q50.32 20.72 51.27 20.37Q52.22 20.02 52.78 19.42Q53.34 18.82 53.58 18.06Q53.82 17.30 53.82 16.48L53.82 16.48Q53.82 15.66 53.58 14.92Q53.34 14.18 52.78 13.60Q52.22 13.02 51.27 12.68Q50.32 12.34 48.88 12.34L48.88 12.34L44.20 12.34ZM58.74 8.70L61.76 8.70L61.76 10.98L58.74 10.98L58.74 8.70ZM58.94 23L58.94 13.06L61.54 13.06L61.54 23L58.94 23ZM73.56 19.08L75.94 19.08Q75.84 20.38 75.11 21.32Q74.38 22.26 73.10 22.75Q71.82 23.24 70.06 23.24L70.06 23.24Q68.22 23.24 66.77 22.65Q65.32 22.06 64.49 20.91Q63.66 19.76 63.66 18.06L63.66 18.06Q63.66 16.36 64.49 15.20Q65.32 14.04 66.77 13.44Q68.22 12.84 70.06 12.84L70.06 12.84Q71.82 12.84 73.08 13.33Q74.34 13.82 75.07 14.74Q75.80 15.66 75.92 16.96L75.92 16.96L73.54 16.96Q73.20 15.96 72.28 15.40Q71.36 14.84 70.06 14.84L70.06 14.84Q69.02 14.84 68.17 15.20Q67.32 15.56 66.81 16.27Q66.30 16.98 66.30 18.06L66.30 18.06Q66.30 19.12 66.80 19.83Q67.30 20.54 68.16 20.89Q69.02 21.24 70.06 21.24L70.06 21.24Q71.46 21.24 72.35 20.68Q73.24 20.12 73.56 19.08L73.56 19.08ZM86.92 19.70L86.92 19.70L89.44 19.70Q89.28 20.72 88.59 21.52Q87.90 22.32 86.72 22.78Q85.54 23.24 83.84 23.24L83.84 23.24Q81.94 23.24 80.48 22.63Q79.02 22.02 78.20 20.86Q77.38 19.70 77.38 18.06L77.38 18.06Q77.38 16.42 78.18 15.25Q78.98 14.08 80.41 13.46Q81.84 12.84 83.76 12.84L83.76 12.84Q85.72 12.84 87.02 13.46Q88.32 14.08 88.95 15.33Q89.58 16.58 89.48 18.52L89.48 18.52L80 18.52Q80.10 19.28 80.57 19.90Q81.04 20.52 81.85 20.88Q82.66 21.24 83.78 21.24L83.78 21.24Q85.02 21.24 85.85 20.81Q86.68 20.38 86.92 19.70ZM83.64 14.82L83.64 14.82Q82.20 14.82 81.30 15.45Q80.40 16.08 80.14 17L80.14 17L86.90 17Q86.80 16 85.95 15.41Q85.10 14.82 83.64 14.82Z"/>
  
  <!-- Text "ify" in pink - Syne Bold font converted to paths -->
  <path fill="#FF2D92" d="M91.38 8.70L94.40 8.70L94.40 10.98L91.38 10.98L91.38 8.70ZM91.58 23L91.58 13.06L94.18 13.06L94.18 23L91.58 23ZM96.08 15.22L96.08 13.24L104.08 13.24L104.08 15.22L96.08 15.22ZM102.16 9.06L102.16 9.06L104.22 9.06L104.22 11.16L102.78 11.16Q102.20 11.14 101.78 11.28Q101.36 11.42 101.14 11.79Q100.92 12.16 100.92 12.84L100.92 12.84L100.92 23L98.32 23L98.32 12.52Q98.32 11.32 98.76 10.55Q99.20 9.78 100.06 9.42Q100.92 9.06 102.16 9.06ZM109.62 23L104.80 13.06L107.56 13.06L111.86 22.60L109.62 23ZM114.18 13.06L116.96 13.06L110.08 27L107.38 27L110.32 21.52L114.18 13.06Z"/>
</svg>
